<svg width="32" height="32" viewBox="0 0 32 32" fill="none" xmlns="http://www.w3.org/2000/svg">
<path d="M16.3333 5.33333V13.6667H15.6667V5.33333C15.6667 5.14924 15.8159 5 16 5C16.1841 5 16.3333 5.14924 16.3333 5.33333ZM15.6667 15.6667H16.3333V16.3333H15.6667V15.6667ZM18.3333 16.3333V15.6667H26.6667C26.8508 15.6667 27 15.8159 27 16C27 16.1841 26.8508 16.3333 26.6667 16.3333H18.3333ZM15.6667 18.3333H16.3333V26.6667C16.3333 26.8508 16.1841 27 16 27C15.8159 27 15.6667 26.8508 15.6667 26.6667V18.3333ZM13.6667 15.6667V16.3333H5.33333C5.14924 16.3333 5 16.1841 5 16C5 15.8159 5.14924 15.6667 5.33333 15.6667H13.6667Z" stroke="#F5F5F5" stroke-width="2" stroke-linejoin="round"/>
</svg>
