<svg width="72" height="72" viewBox="0 0 72 72" fill="none" xmlns="http://www.w3.org/2000/svg">
<rect width="72" height="72" fill="#FF541E"/>
<path fill-rule="evenodd" clip-rule="evenodd" d="M23.7494 23.7494C30.5152 16.9835 41.4848 16.9835 48.2506 23.7494C55.0165 30.5152 55.0165 41.4848 48.2506 48.2506C47.0205 49.4808 47.0205 51.4752 48.2506 52.7054C49.4808 53.9355 51.4752 53.9356 52.7054 52.7054C61.9315 43.4793 61.9315 28.5207 52.7054 19.2946C43.4793 10.0685 28.5207 10.0685 19.2946 19.2946C10.0685 28.5207 10.0685 43.4793 19.2946 52.7054C20.5248 53.9356 22.5192 53.9355 23.7494 52.7054C24.9795 51.4752 24.9795 49.4808 23.7494 48.2506C16.9835 41.4848 16.9835 30.5152 23.7494 23.7494Z" fill="url(#paint0_angular_3101_2513)"/>
<path fill-rule="evenodd" clip-rule="evenodd" d="M48.2506 48.2506C41.4848 55.0165 30.5152 55.0165 23.7494 48.2506C16.9835 41.4848 16.9835 30.5152 23.7494 23.7494C24.9795 22.5192 24.9795 20.5248 23.7494 19.2946C22.5192 18.0644 20.5247 18.0644 19.2946 19.2946C10.0685 28.5207 10.0685 43.4793 19.2946 52.7054C28.5207 61.9315 43.4793 61.9315 52.7054 52.7054C61.9315 43.4793 61.9315 28.5207 52.7054 19.2946C51.4752 18.0644 49.4808 18.0644 48.2506 19.2946C47.0205 20.5247 47.0205 22.5192 48.2506 23.7494C55.0165 30.5152 55.0165 41.4848 48.2506 48.2506Z" fill="url(#paint1_angular_3101_2513)"/>
<defs>
<radialGradient id="paint0_angular_3101_2513" cx="0" cy="0" r="1" gradientUnits="userSpaceOnUse" gradientTransform="translate(36 36) rotate(45) scale(23.625)">
<stop offset="0.00813216" stop-color="#F5F5F5"/>
<stop offset="0.771037" stop-color="#F5F5F5" stop-opacity="0"/>
<stop offset="0.978134" stop-color="#F5F5F5"/>
</radialGradient>
<radialGradient id="paint1_angular_3101_2513" cx="0" cy="0" r="1" gradientUnits="userSpaceOnUse" gradientTransform="translate(36 36) rotate(-135) scale(23.625)">
<stop offset="0.00813216" stop-color="#F5F5F5"/>
<stop offset="0.771037" stop-color="#F5F5F5" stop-opacity="0"/>
<stop offset="0.978134" stop-color="#F5F5F5"/>
</radialGradient>
</defs>
</svg>
