<svg width="71" height="57" viewBox="0 0 71 57" fill="none" xmlns="http://www.w3.org/2000/svg">
<path d="M24 12.0055V9.33333C24 8 25.3333 6.66667 26.6667 6.66667M16 12.0055V6.80609C16 5.33333 17.3333 4 18.6667 4M8 12.0055V10.6667C8 9.33333 9.33333 8 10.8061 8M21.3333 28C21.3333 28 21.3333 26.757 21.3343 26.7521C21.7991 26.5211 22.2468 26.2609 22.6749 25.9737C23.3264 25.5369 23.9327 25.0379 24.4853 24.4853C26.6569 22.3137 28 19.3137 28 16H4C4 19.3137 5.34315 22.3137 7.51473 24.4853C8.0724 25.043 8.68473 25.546 9.343 25.9857C9.76867 26.2701 10.2136 26.528 10.6754 26.757L10.6667 28H21.3333Z" stroke="#F5F5F5" stroke-width="2" stroke-linecap="round" stroke-linejoin="round"/>
<path d="M3.12216 56.1541C4.32031 56.1541 5.03622 55.5923 5.36435 54.951H5.42401V56H7.15412V50.8892C7.15412 48.8707 5.50852 48.2642 4.05185 48.2642C2.44602 48.2642 1.21307 48.9801 0.815341 50.3722L2.49574 50.6108C2.67472 50.0888 3.18182 49.6413 4.06179 49.6413C4.89702 49.6413 5.3544 50.0689 5.3544 50.8196V50.8494C5.3544 51.3665 4.8125 51.3913 3.4652 51.5355C1.98366 51.6946 0.566761 52.1371 0.566761 53.8572C0.566761 55.3587 1.66548 56.1541 3.12216 56.1541ZM3.58949 54.8317C2.83878 54.8317 2.30185 54.4886 2.30185 53.8274C2.30185 53.1364 2.90341 52.848 3.70881 52.7337C4.18111 52.669 5.12571 52.5497 5.35938 52.3608V53.2607C5.35938 54.1108 4.6733 54.8317 3.58949 54.8317ZM11.2376 56.1342C12.5501 56.1342 13.1417 55.3537 13.4251 54.7969H13.5345V56H15.3043V45.8182H13.4997V49.6264H13.4251C13.1516 49.0746 12.5899 48.2642 11.2426 48.2642C9.47764 48.2642 8.09057 49.6463 8.09057 52.1918C8.09057 54.7074 9.43787 56.1342 11.2376 56.1342ZM11.7397 54.6577C10.5515 54.6577 9.92509 53.6136 9.92509 52.1818C9.92509 50.7599 10.5416 49.7408 11.7397 49.7408C12.8981 49.7408 13.5345 50.7003 13.5345 52.1818C13.5345 53.6634 12.8882 54.6577 11.7397 54.6577ZM19.4959 56.1342C20.8084 56.1342 21.4001 55.3537 21.6834 54.7969H21.7928V56H23.5627V45.8182H21.758V49.6264H21.6834C21.41 49.0746 20.8482 48.2642 19.5009 48.2642C17.736 48.2642 16.3489 49.6463 16.3489 52.1918C16.3489 54.7074 17.6962 56.1342 19.4959 56.1342ZM19.9981 54.6577C18.8099 54.6577 18.1834 53.6136 18.1834 52.1818C18.1834 50.7599 18.7999 49.7408 19.9981 49.7408C21.1565 49.7408 21.7928 50.7003 21.7928 52.1818C21.7928 53.6634 21.1465 54.6577 19.9981 54.6577ZM31.7011 48.3636H30.1151V47.7621C30.1151 47.1655 30.3637 46.8324 31.0349 46.8324C31.3182 46.8324 31.5569 46.897 31.706 46.9418L32.0689 45.5497C31.8353 45.4702 31.3232 45.3409 30.7018 45.3409C29.3743 45.3409 28.3154 46.1016 28.3154 47.6428V48.3636H27.1868V49.7557H28.3154V56H30.1151V49.7557H31.7011V48.3636ZM35.5944 56.1491C37.8316 56.1491 39.2534 54.5732 39.2534 52.2116C39.2534 49.8452 37.8316 48.2642 35.5944 48.2642C33.3571 48.2642 31.9353 49.8452 31.9353 52.2116C31.9353 54.5732 33.3571 56.1491 35.5944 56.1491ZM35.6043 54.7074C34.3664 54.7074 33.7598 53.6037 33.7598 52.2067C33.7598 50.8097 34.3664 49.6911 35.6043 49.6911C36.8223 49.6911 37.4289 50.8097 37.4289 52.2067C37.4289 53.6037 36.8223 54.7074 35.6043 54.7074ZM43.5519 56.1491C45.7891 56.1491 47.211 54.5732 47.211 52.2116C47.211 49.8452 45.7891 48.2642 43.5519 48.2642C41.3147 48.2642 39.8928 49.8452 39.8928 52.2116C39.8928 54.5732 41.3147 56.1491 43.5519 56.1491ZM43.5619 54.7074C42.3239 54.7074 41.7174 53.6037 41.7174 52.2067C41.7174 50.8097 42.3239 49.6911 43.5619 49.6911C44.7799 49.6911 45.3864 50.8097 45.3864 52.2067C45.3864 53.6037 44.7799 54.7074 43.5619 54.7074ZM51.0124 56.1342C52.3249 56.1342 52.9165 55.3537 53.1999 54.7969H53.3092V56H55.0791V45.8182H53.2744V49.6264H53.1999C52.9264 49.0746 52.3646 48.2642 51.0173 48.2642C49.2524 48.2642 47.8653 49.6463 47.8653 52.1918C47.8653 54.7074 49.2126 56.1342 51.0124 56.1342ZM51.5145 54.6577C50.3263 54.6577 49.6999 53.6136 49.6999 52.1818C49.6999 50.7599 50.3163 49.7408 51.5145 49.7408C52.6729 49.7408 53.3092 50.7003 53.3092 52.1818C53.3092 53.6634 52.6629 54.6577 51.5145 54.6577Z" fill="#F5F5F5"/>
</svg>
