<svg width="375" height="107" viewBox="0 0 375 107" fill="none" xmlns="http://www.w3.org/2000/svg">
<path d="M51 27.5C56.799 27.5 61.5 32.201 61.5 38C61.5 43.799 56.799 48.5 51 48.5C45.201 48.5 40.5 43.799 40.5 38C40.5 35.8415 41.1513 33.8351 42.2681 32.1667M56.8333 38C56.8333 34.7783 54.2217 32.1667 51 32.1667C47.7783 32.1667 45.1667 34.7783 45.1667 38C45.1667 41.2217 47.7783 43.8333 51 43.8333" stroke="#FF541E" stroke-width="2" stroke-linecap="round" stroke-linejoin="round"/>
<path d="M36.3721 72H38.1719V67.3565C38.1719 66.4169 38.7983 65.7805 39.5738 65.7805C40.3345 65.7805 40.8565 66.2926 40.8565 67.0781V72H42.6214V67.2372C42.6214 66.3771 43.1335 65.7805 44.0035 65.7805C44.7294 65.7805 45.3061 66.2081 45.3061 67.1527V72H47.1108V66.8743C47.1108 65.169 46.1264 64.2642 44.7244 64.2642C43.6157 64.2642 42.7706 64.8111 42.4325 65.6612H42.353C42.0596 64.7962 41.3189 64.2642 40.2898 64.2642C39.2656 64.2642 38.5 64.7912 38.1818 65.6612H38.0923V64.3636H36.3721V72ZM50.574 72.1541C51.7722 72.1541 52.4881 71.5923 52.8162 70.951H52.8759V72H54.606V66.8892C54.606 64.8707 52.9604 64.2642 51.5037 64.2642C49.8979 64.2642 48.6649 64.9801 48.2672 66.3722L49.9476 66.6108C50.1266 66.0888 50.6337 65.6413 51.5137 65.6413C52.3489 65.6413 52.8063 66.0689 52.8063 66.8196V66.8494C52.8063 67.3665 52.2644 67.3913 50.9171 67.5355C49.4355 67.6946 48.0186 68.1371 48.0186 69.8572C48.0186 71.3587 49.1174 72.1541 50.574 72.1541ZM51.0414 70.8317C50.2907 70.8317 49.7537 70.4886 49.7537 69.8274C49.7537 69.1364 50.3553 68.848 51.1607 68.7337C51.633 68.669 52.5776 68.5497 52.8112 68.3608V69.2607C52.8112 70.1108 52.1252 70.8317 51.0414 70.8317ZM55.8557 72H57.6554V64.3636H55.8557V72ZM56.7605 63.2798C57.3322 63.2798 57.7995 62.8423 57.7995 62.3054C57.7995 61.7635 57.3322 61.326 56.7605 61.326C56.1838 61.326 55.7164 61.7635 55.7164 62.3054C55.7164 62.8423 56.1838 63.2798 56.7605 63.2798ZM60.7458 67.5256C60.7458 66.4219 61.412 65.7855 62.3615 65.7855C63.2912 65.7855 63.848 66.397 63.848 67.4162V72H65.6477V67.1378C65.6527 65.3082 64.6087 64.2642 63.0327 64.2642C61.8892 64.2642 61.1037 64.8111 60.7557 65.6612H60.6662V64.3636H58.946V72H60.7458V67.5256Z" fill="#FF541E"/>
<path d="M236.5 48.5V29.8333C236.5 28.5447 235.455 27.5 234.167 27.5H231.833C230.545 27.5 229.5 28.5447 229.5 29.8333V48.5M236.5 48.5H229.5M236.5 48.5H241.167C242.455 48.5 243.5 47.4553 243.5 46.1667V41.5C243.5 40.2113 242.455 39.1667 241.167 39.1667H238.833C237.545 39.1667 236.5 40.2113 236.5 41.5V48.5ZM229.5 48.5V36.8333C229.5 35.5447 228.455 34.5 227.167 34.5H224.833C223.545 34.5 222.5 35.5447 222.5 36.8333V46.1667C222.5 47.4553 223.545 48.5 224.833 48.5H229.5Z" stroke="#747474" stroke-width="2" stroke-linejoin="round"/>
<path opacity="0.9" d="M224.203 66.228C223.895 65.0398 222.965 64.2642 221.314 64.2642C219.589 64.2642 218.366 65.174 218.366 66.5263C218.366 67.6101 219.023 68.331 220.454 68.6491L221.747 68.9325C222.483 69.0966 222.826 69.4247 222.826 69.902C222.826 70.4936 222.194 70.956 221.22 70.956C220.33 70.956 219.758 70.5732 219.579 69.8224L218.143 70.0412C218.391 71.3935 219.515 72.1541 221.23 72.1541C223.074 72.1541 224.352 71.1747 224.352 69.7926C224.352 68.7138 223.666 68.0476 222.264 67.7244L221.051 67.446C220.211 67.2472 219.848 66.9638 219.853 66.4467C219.848 65.8601 220.484 65.4425 221.329 65.4425C222.254 65.4425 222.682 65.9545 222.856 66.4666L224.203 66.228ZM228.991 64.3636H227.425V62.5341H225.939V64.3636H224.82V65.5568H225.939V70.0661C225.934 71.4531 226.993 72.1243 228.166 72.0994C228.638 72.0945 228.956 72.005 229.13 71.9403L228.862 70.7124C228.762 70.7322 228.578 70.777 228.34 70.777C227.858 70.777 227.425 70.6179 227.425 69.7578V65.5568H228.991V64.3636ZM232.298 72.169C233.561 72.169 234.271 71.5277 234.555 70.956H234.615V72H236.066V66.929C236.066 64.7067 234.316 64.2642 233.103 64.2642C231.721 64.2642 230.448 64.821 229.951 66.2131L231.348 66.5312C231.567 65.9893 232.124 65.4673 233.123 65.4673C234.083 65.4673 234.575 65.9695 234.575 66.8345V66.8693C234.575 67.4112 234.018 67.4013 232.646 67.5604C231.199 67.7294 229.718 68.1072 229.718 69.8423C229.718 71.3438 230.846 72.169 232.298 72.169ZM232.621 70.9759C231.781 70.9759 231.174 70.598 231.174 69.8622C231.174 69.0668 231.88 68.7834 232.74 68.669C233.222 68.6044 234.366 68.4751 234.58 68.2614V69.2457C234.58 70.1506 233.859 70.9759 232.621 70.9759ZM241.051 64.3636H239.485V62.5341H237.998V64.3636H236.88V65.5568H237.998V70.0661C237.993 71.4531 239.052 72.1243 240.226 72.0994C240.698 72.0945 241.016 72.005 241.19 71.9403L240.922 70.7124C240.822 70.7322 240.638 70.777 240.4 70.777C239.917 70.777 239.485 70.6179 239.485 69.7578V65.5568H241.051V64.3636ZM247.734 66.228C247.426 65.0398 246.496 64.2642 244.846 64.2642C243.121 64.2642 241.898 65.174 241.898 66.5263C241.898 67.6101 242.554 68.331 243.986 68.6491L245.278 68.9325C246.014 69.0966 246.357 69.4247 246.357 69.902C246.357 70.4936 245.726 70.956 244.751 70.956C243.862 70.956 243.29 70.5732 243.111 69.8224L241.674 70.0412C241.923 71.3935 243.046 72.1541 244.761 72.1541C246.606 72.1541 247.884 71.1747 247.884 69.7926C247.884 68.7138 247.197 68.0476 245.795 67.7244L244.582 67.446C243.742 67.2472 243.379 66.9638 243.384 66.4467C243.379 65.8601 244.016 65.4425 244.861 65.4425C245.786 65.4425 246.213 65.9545 246.387 66.4666L247.734 66.228Z" fill="#959595"/>
<path d="M334.034 41.0982L333.079 40.8023L334.034 41.0982ZM331.7 45.1397L330.967 44.4605L331.7 45.1397ZM316.298 30.8584L317.032 31.5377H317.032L316.298 30.8584ZM313.965 34.8999L313.009 34.6039H313.009L313.965 34.8999ZM334.032 34.9009L333.076 35.1958L334.032 34.9009ZM331.692 30.849L330.96 31.53L331.692 30.849ZM313.963 41.0851L313.007 41.3788L313.963 41.0851ZM316.315 45.1583L315.583 45.8402L316.315 45.1583ZM326.331 27.7585L326.554 26.7835L326.331 27.7585ZM321.679 27.7585L321.9 28.7337L321.679 27.7585ZM321.679 48.2425L321.458 49.2177L321.679 48.2425ZM326.307 48.2425L326.087 47.267L326.307 48.2425ZM324 42.5C326.485 42.5 328.5 40.4853 328.5 38H326.5C326.5 39.3808 325.381 40.5 324 40.5V42.5ZM328.5 38C328.5 35.5148 326.485 33.5 324 33.5V35.5C325.381 35.5 326.5 36.6193 326.5 38H328.5ZM324 33.5C321.515 33.5 319.5 35.5148 319.5 38H321.5C321.5 36.6193 322.619 35.5 324 35.5V33.5ZM319.5 38C319.5 40.4853 321.515 42.5 324 42.5V40.5C322.619 40.5 321.5 39.3808 321.5 38H319.5ZM330.96 31.53C331.944 32.5884 332.66 33.8464 333.076 35.1958L334.987 34.6061C334.484 32.975 333.618 31.4515 332.425 30.168L330.96 31.53ZM333.079 40.8023C332.667 42.1297 331.91 43.4406 330.967 44.4605L332.434 45.8189C333.581 44.5798 334.489 43.007 334.989 41.3942L333.079 40.8023ZM317.046 44.4764C316.055 43.4135 315.336 42.1485 314.919 40.7914L313.007 41.3788C313.511 43.0192 314.381 44.5511 315.583 45.8402L317.046 44.4764ZM326.087 47.267C324.724 47.5742 323.294 47.5833 321.901 47.2672L321.458 49.2177C323.148 49.601 324.88 49.5893 326.527 49.218L326.087 47.267ZM321.9 28.7337C323.27 28.4232 324.708 28.414 326.109 28.7335L326.554 26.7835C324.855 26.396 323.113 26.4079 321.458 26.7833L321.9 28.7337ZM314.92 35.1959C315.331 33.8685 316.088 32.5575 317.032 31.5377L315.564 30.1792C314.417 31.4183 313.509 32.9912 313.009 34.6039L314.92 35.1959ZM333.076 35.1958C333.072 35.1837 333.032 35.0402 333.105 34.8482C333.175 34.6623 333.296 34.5783 333.306 34.5714C333.313 34.5671 333.307 34.5717 333.278 34.5866C333.249 34.6017 333.212 34.6191 333.156 34.6452C333.055 34.6923 332.891 34.7663 332.723 34.8611C332.366 35.0632 331.947 35.38 331.633 35.9309C331.326 36.4704 331.168 37.1492 331.168 37.9999H333.168C333.168 37.3922 333.281 37.0795 333.371 36.9209C333.455 36.7735 333.56 36.6854 333.707 36.6024C333.792 36.5547 333.876 36.5161 333.999 36.4588C334.098 36.4126 334.275 36.3317 334.435 36.2226C334.605 36.1061 334.846 35.8992 334.976 35.5552C335.108 35.205 335.068 34.8683 334.987 34.6061L333.076 35.1958ZM331.168 37.9999C331.168 38.851 331.327 39.53 331.636 40.0692C331.952 40.6196 332.373 40.9341 332.731 41.134C332.899 41.2276 333.062 41.3011 333.162 41.3473C333.287 41.4047 333.309 41.4194 333.308 41.4184C333.295 41.4091 333.174 41.3234 333.105 41.1372C333.036 40.9476 333.077 40.8088 333.079 40.8023L334.989 41.3942C335.07 41.1333 335.111 40.7978 334.983 40.4478C334.856 40.101 334.616 39.8909 334.442 39.7713C334.281 39.66 334.102 39.5784 334.002 39.5319C333.877 39.4741 333.792 39.436 333.707 39.3882C333.559 39.3053 333.454 39.2183 333.371 39.0734C333.281 38.9173 333.168 38.6071 333.168 37.9999H331.168ZM330.967 44.4605C330.971 44.4555 331.071 44.351 331.269 44.3165C331.465 44.2826 331.599 44.3441 331.614 44.3511C331.615 44.3518 331.591 44.3393 331.479 44.2605C331.389 44.1972 331.244 44.0921 331.079 43.994C330.727 43.7844 330.244 43.5771 329.609 43.5787C328.987 43.5803 328.32 43.782 327.583 44.2075L328.583 45.9396C329.108 45.636 329.434 45.5791 329.614 45.5787C329.782 45.5783 329.909 45.6254 330.056 45.7124C330.14 45.7626 330.215 45.8164 330.328 45.8958C330.418 45.9597 330.579 46.0736 330.756 46.1578C330.946 46.2482 331.248 46.3502 331.612 46.2869C331.979 46.2231 332.249 46.0195 332.434 45.8189L330.967 44.4605ZM327.583 44.2075C326.846 44.6329 326.337 45.1093 326.023 45.6439C325.701 46.1893 325.633 46.7087 325.633 47.1185C325.633 47.3105 325.649 47.4891 325.658 47.5996C325.663 47.6609 325.665 47.7012 325.666 47.7336C325.668 47.7658 325.666 47.7729 325.667 47.7651C325.668 47.7513 325.683 47.6073 325.808 47.4578C325.936 47.3042 326.076 47.2693 326.087 47.267L326.527 49.218C326.794 49.1576 327.104 49.0257 327.342 48.7411C327.576 48.4606 327.64 48.1517 327.659 47.9439C327.676 47.75 327.66 47.5554 327.652 47.445C327.641 47.3083 327.633 47.2156 327.633 47.1172C327.633 46.9461 327.658 46.8079 327.746 46.6587C327.84 46.4987 328.056 46.2433 328.583 45.9396L327.583 44.2075ZM321.901 47.2672C321.911 47.2697 322.053 47.3053 322.182 47.4609C322.307 47.612 322.32 47.7571 322.322 47.7702C322.322 47.7779 322.321 47.7706 322.322 47.7382C322.324 47.7056 322.327 47.6652 322.332 47.6037C322.341 47.4929 322.358 47.314 322.359 47.1216C322.361 46.7113 322.295 46.1905 321.975 45.6434C321.661 45.1072 321.153 44.6301 320.415 44.2045L319.415 45.9366C319.941 46.2402 320.156 46.495 320.249 46.6538C320.336 46.8017 320.36 46.939 320.359 47.1102C320.358 47.2085 320.35 47.3013 320.339 47.438C320.329 47.5483 320.312 47.7429 320.328 47.9368C320.346 48.1443 320.408 48.4547 320.642 48.7371C320.88 49.024 321.19 49.1569 321.458 49.2177L321.901 47.2672ZM320.415 44.2045C319.679 43.7791 319.011 43.5771 318.389 43.5761C317.753 43.5751 317.27 43.7841 316.917 43.9972C316.751 44.0972 316.607 44.2036 316.515 44.2694C316.465 44.3058 316.431 44.3294 316.404 44.3478C316.376 44.366 316.369 44.3691 316.376 44.3658C316.385 44.3609 316.52 44.2943 316.72 44.3248C316.928 44.3565 317.036 44.4659 317.046 44.4764L315.583 45.8402C315.77 46.0412 316.045 46.245 316.419 46.302C316.785 46.3578 317.084 46.2472 317.267 46.1558C317.44 46.0701 317.596 45.9554 317.685 45.892C317.794 45.813 317.869 45.7588 317.951 45.7091C318.094 45.6227 318.22 45.5759 318.385 45.5761C318.564 45.5764 318.889 45.6328 319.415 45.9366L320.415 44.2045ZM314.919 40.7914C314.923 40.8046 314.963 40.9504 314.889 41.1445C314.817 41.3318 314.694 41.4155 314.684 41.422C314.678 41.4261 314.684 41.4215 314.713 41.4066C314.743 41.3917 314.779 41.3744 314.836 41.3486C314.938 41.3019 315.102 41.2287 315.27 41.1344C315.629 40.9336 316.049 40.6178 316.364 40.067C316.672 39.5277 316.831 38.8488 316.831 37.9982L314.831 37.9982C314.831 38.6059 314.717 38.9174 314.628 39.0746C314.544 39.2203 314.44 39.3071 314.294 39.3889C314.21 39.4359 314.126 39.474 314.003 39.5303C313.904 39.5757 313.727 39.6555 313.567 39.763C313.397 39.8778 313.154 40.0832 313.022 40.4274C312.887 40.7785 312.926 41.1165 313.007 41.3788L314.919 40.7914ZM316.831 37.9982C316.831 37.1471 316.672 36.468 316.362 35.9288C316.046 35.3784 315.625 35.0639 315.267 34.8641C315.1 34.7705 314.936 34.6969 314.836 34.6508C314.712 34.5933 314.689 34.5787 314.69 34.5797C314.704 34.5889 314.825 34.6747 314.893 34.8609C314.963 35.0505 314.922 35.1894 314.92 35.1959L313.009 34.6039C312.929 34.8649 312.887 35.2003 313.015 35.5504C313.143 35.8971 313.382 36.1073 313.556 36.2268C313.717 36.3381 313.896 36.4197 313.997 36.4662C314.122 36.524 314.206 36.5621 314.292 36.6099C314.44 36.6928 314.544 36.7797 314.628 36.9246C314.717 37.0808 314.831 37.3909 314.831 37.9982L316.831 37.9982ZM317.032 31.5377C317.027 31.5426 316.928 31.6471 316.729 31.6816C316.534 31.7156 316.399 31.6541 316.385 31.6471C316.383 31.6463 316.407 31.6589 316.519 31.7376C316.609 31.801 316.755 31.906 316.92 32.0041C317.272 32.2138 317.755 32.4211 318.389 32.4194C319.011 32.4179 319.679 32.2162 320.416 31.7906L319.416 30.0586C318.89 30.3622 318.564 30.419 318.384 30.4194C318.217 30.4199 318.089 30.3728 317.943 30.2857C317.858 30.2355 317.783 30.1817 317.671 30.1024C317.58 30.0385 317.42 29.9246 317.242 29.8403C317.052 29.7499 316.75 29.648 316.386 29.7112C316.019 29.775 315.75 29.9786 315.564 30.1792L317.032 31.5377ZM320.416 31.7906C321.152 31.3653 321.661 30.8888 321.975 30.3535C322.296 29.8072 322.362 29.2871 322.36 28.8768C322.359 28.6844 322.343 28.5058 322.334 28.3949C322.328 28.3335 322.325 28.2931 322.324 28.2605C322.323 28.2282 322.324 28.2209 322.323 28.2287C322.322 28.2417 322.309 28.3873 322.183 28.539C322.054 28.6953 321.912 28.7312 321.9 28.7337L321.458 26.7833C321.191 26.8439 320.88 26.9768 320.642 27.2639C320.409 27.5465 320.347 27.8568 320.33 28.0637C320.314 28.257 320.331 28.4511 320.34 28.5608C320.352 28.6968 320.36 28.7892 320.36 28.8869C320.361 29.0567 320.337 29.1934 320.25 29.3411C320.157 29.4999 319.942 29.7547 319.416 30.0586L320.416 31.7906ZM326.109 28.7335C326.097 28.7308 325.954 28.6942 325.824 28.5359C325.698 28.3825 325.686 28.2359 325.685 28.2235C325.684 28.2159 325.685 28.2234 325.684 28.2559C325.682 28.2887 325.679 28.3292 325.674 28.3908C325.664 28.5021 325.646 28.6809 325.644 28.8736C325.64 29.2845 325.704 29.806 326.024 30.354C326.337 30.8908 326.846 31.3681 327.583 31.7936L328.583 30.0615C328.057 29.7579 327.843 29.5036 327.751 29.346C327.666 29.1995 327.642 29.0638 327.644 28.8939C327.645 28.7963 327.654 28.7038 327.666 28.5678C327.675 28.4582 327.694 28.264 327.679 28.0708C327.663 27.8642 327.604 27.5525 327.37 27.268C327.133 26.9785 326.822 26.8446 326.554 26.7835L326.109 28.7335ZM327.583 31.7936C328.32 32.2191 328.988 32.421 329.609 32.4229C330.244 32.4248 330.728 32.2175 331.081 32.0063C331.247 31.9072 331.392 31.8016 331.484 31.7365C331.534 31.7005 331.568 31.6771 331.595 31.6591C331.623 31.6411 331.63 31.6382 331.623 31.6415C331.613 31.6466 331.479 31.7115 331.28 31.6802C331.075 31.6477 330.969 31.5398 330.96 31.53L332.425 30.168C332.238 29.9668 331.964 29.7634 331.593 29.7047C331.228 29.647 330.928 29.7548 330.743 29.8453C330.57 29.9302 330.412 30.0441 330.323 30.1075C330.213 30.1862 330.138 30.2402 330.055 30.2899C329.91 30.3763 329.783 30.4234 329.615 30.4229C329.435 30.4223 329.109 30.3652 328.583 30.0615L327.583 31.7936Z" fill="#747474"/>
<path opacity="0.9" d="M305.611 66.228C305.303 65.0398 304.373 64.2642 302.723 64.2642C300.998 64.2642 299.775 65.174 299.775 66.5263C299.775 67.6101 300.431 68.331 301.863 68.6491L303.155 68.9325C303.891 69.0966 304.234 69.4247 304.234 69.902C304.234 70.4936 303.603 70.956 302.628 70.956C301.738 70.956 301.167 70.5732 300.988 69.8224L299.551 70.0412C299.799 71.3935 300.923 72.1541 302.638 72.1541C304.483 72.1541 305.76 71.1747 305.76 69.7926C305.76 68.7138 305.074 68.0476 303.672 67.7244L302.459 67.446C301.619 67.2472 301.256 66.9638 301.261 66.4467C301.256 65.8601 301.893 65.4425 302.738 65.4425C303.662 65.4425 304.09 65.9545 304.264 66.4666L305.611 66.228ZM310.126 72.1541C311.792 72.1541 312.97 71.3338 313.308 70.0909L311.901 69.8374C311.632 70.5582 310.986 70.9261 310.141 70.9261C308.868 70.9261 308.013 70.1009 307.973 68.6293H313.402V68.1023C313.402 65.343 311.752 64.2642 310.022 64.2642C307.894 64.2642 306.492 65.8849 306.492 68.2315C306.492 70.603 307.874 72.1541 310.126 72.1541ZM307.978 67.5156C308.038 66.4318 308.823 65.4922 310.032 65.4922C311.185 65.4922 311.941 66.3473 311.946 67.5156H307.978ZM318.056 64.3636H316.49V62.5341H315.004V64.3636H313.885V65.5568H315.004V70.0661C314.999 71.4531 316.058 72.1243 317.231 72.0994C317.703 72.0945 318.021 72.005 318.195 71.9403L317.927 70.7124C317.828 70.7322 317.644 70.777 317.405 70.777C316.923 70.777 316.49 70.6179 316.49 69.7578V65.5568H318.056V64.3636ZM322.705 64.3636H321.139V62.5341H319.653V64.3636H318.534V65.5568H319.653V70.0661C319.648 71.4531 320.707 72.1243 321.88 72.0994C322.352 72.0945 322.67 72.005 322.844 71.9403L322.576 70.7124C322.477 70.7322 322.293 70.777 322.054 70.777C321.572 70.777 321.139 70.6179 321.139 69.7578V65.5568H322.705V64.3636ZM323.79 72H325.276V64.3636H323.79V72ZM324.54 63.1854C325.052 63.1854 325.48 62.7876 325.48 62.3004C325.48 61.8132 325.052 61.4105 324.54 61.4105C324.023 61.4105 323.601 61.8132 323.601 62.3004C323.601 62.7876 324.023 63.1854 324.54 63.1854ZM328.202 67.4659C328.202 66.2479 328.948 65.5518 329.982 65.5518C330.991 65.5518 331.603 66.2131 331.603 67.3217V72H333.09V67.1428C333.09 65.2536 332.05 64.2642 330.489 64.2642C329.341 64.2642 328.59 64.7962 328.237 65.6065H328.143V64.3636H326.716V72H328.202V67.4659ZM337.725 75.0227C339.669 75.0227 341.17 74.1328 341.17 72.169V64.3636H339.713V65.6016H339.604C339.341 65.1293 338.814 64.2642 337.392 64.2642C335.547 64.2642 334.19 65.7209 334.19 68.152C334.19 70.5881 335.577 71.8857 337.382 71.8857C338.784 71.8857 339.326 71.0952 339.594 70.608H339.689V72.1094C339.689 73.3075 338.868 73.8246 337.74 73.8246C336.502 73.8246 336.02 73.2031 335.756 72.7656L334.478 73.2926C334.881 74.2273 335.9 75.0227 337.725 75.0227ZM337.71 70.6527C336.382 70.6527 335.691 69.6335 335.691 68.1321C335.691 66.6655 336.368 65.527 337.71 65.527C339.007 65.527 339.704 66.5859 339.704 68.1321C339.704 69.7081 338.993 70.6527 337.71 70.6527ZM348.326 66.228C348.018 65.0398 347.088 64.2642 345.438 64.2642C343.712 64.2642 342.489 65.174 342.489 66.5263C342.489 67.6101 343.146 68.331 344.577 68.6491L345.87 68.9325C346.606 69.0966 346.949 69.4247 346.949 69.902C346.949 70.4936 346.318 70.956 345.343 70.956C344.453 70.956 343.881 70.5732 343.702 69.8224L342.266 70.0412C342.514 71.3935 343.638 72.1541 345.353 72.1541C347.197 72.1541 348.475 71.1747 348.475 69.7926C348.475 68.7138 347.789 68.0476 346.387 67.7244L345.174 67.446C344.334 67.2472 343.971 66.9638 343.976 66.4467C343.971 65.8601 344.607 65.4425 345.452 65.4425C346.377 65.4425 346.805 65.9545 346.979 66.4666L348.326 66.228Z" fill="#959595"/>
<path d="M132.839 43.7311C132.782 44.2805 133.182 44.7717 133.731 44.8281C134.281 44.8845 134.772 44.4849 134.828 43.9355L132.839 43.7311ZM149.172 43.9309C149.23 44.4802 149.723 44.8782 150.272 44.82C150.821 44.7618 151.219 44.2694 151.161 43.7202L149.172 43.9309ZM142 49.5C148.351 49.5 153.5 44.3513 153.5 38H151.5C151.5 43.2467 147.247 47.5 142 47.5V49.5ZM153.5 38C153.5 31.6487 148.351 26.5 142 26.5V28.5C147.247 28.5 151.5 32.7533 151.5 38H153.5ZM142 26.5C135.649 26.5 130.5 31.6487 130.5 38H132.5C132.5 32.7533 136.753 28.5 142 28.5V26.5ZM130.5 38C130.5 44.3513 135.649 49.5 142 49.5V47.5C136.753 47.5 132.5 43.2467 132.5 38H130.5ZM142 37.8333C144.163 37.8333 145.917 36.0798 145.917 33.9167H143.917C143.917 34.9752 143.059 35.8333 142 35.8333V37.8333ZM145.917 33.9167C145.917 31.7536 144.163 30 142 30V32C143.059 32 143.917 32.8581 143.917 33.9167H145.917ZM142 30C139.837 30 138.083 31.7536 138.083 33.9167H140.083C140.083 32.8581 140.941 32 142 32V30ZM138.083 33.9167C138.083 36.0798 139.837 37.8333 142 37.8333V35.8333C140.941 35.8333 140.083 34.9752 140.083 33.9167H138.083ZM134.828 43.9355C134.886 43.3763 135.297 42.739 136.179 42.2066C137.049 41.6821 138.272 41.3333 139.663 41.3333V39.3333C137.958 39.3333 136.368 39.7573 135.146 40.4941C133.938 41.2231 132.982 42.3358 132.839 43.7311L134.828 43.9355ZM139.663 41.3333H144.337V39.3333H139.663V41.3333ZM144.337 41.3333C145.726 41.3333 146.949 41.6812 147.818 42.2046C148.701 42.7359 149.113 43.3723 149.172 43.9309L151.161 43.7202C151.014 42.328 150.057 41.2183 148.85 40.4912C147.629 39.7562 146.04 39.3333 144.337 39.3333V41.3333Z" fill="#747474"/>
<path opacity="0.9" d="M123.413 74.8636H124.899V70.8118H124.989C125.257 71.299 125.804 72.1491 127.196 72.1491C129.046 72.1491 130.388 70.6676 130.388 68.1967C130.388 65.7209 129.026 64.2642 127.181 64.2642C125.764 64.2642 125.252 65.1293 124.989 65.6016H124.864V64.3636H123.413V74.8636ZM124.869 68.1818C124.869 66.5859 125.565 65.527 126.863 65.527C128.21 65.527 128.886 66.6655 128.886 68.1818C128.886 69.7131 128.19 70.8814 126.863 70.8814C125.585 70.8814 124.869 69.7876 124.869 68.1818ZM131.493 72H132.98V67.3366C132.98 66.3374 133.75 65.6165 134.804 65.6165C135.113 65.6165 135.461 65.6712 135.58 65.706V64.2841C135.431 64.2642 135.137 64.2493 134.949 64.2493C134.054 64.2493 133.288 64.7564 133.01 65.5767H132.93V64.3636H131.493V72ZM139.25 72.1541C141.402 72.1541 142.809 70.5781 142.809 68.2166C142.809 65.8402 141.402 64.2642 139.25 64.2642C137.097 64.2642 135.69 65.8402 135.69 68.2166C135.69 70.5781 137.097 72.1541 139.25 72.1541ZM139.255 70.9062C137.848 70.9062 137.191 69.6783 137.191 68.2116C137.191 66.75 137.848 65.5071 139.255 65.5071C140.652 65.5071 141.308 66.75 141.308 68.2116C141.308 69.6783 140.652 70.9062 139.255 70.9062ZM147.543 64.3636H145.897V63.6776C145.897 63.0014 146.176 62.6335 146.901 62.6335C147.21 62.6335 147.428 62.7031 147.568 62.7479L147.916 61.5447C147.707 61.4652 147.274 61.3409 146.673 61.3409C145.465 61.3409 144.406 62.0469 144.406 63.4787V64.3636H143.227V65.5568H144.406V72H145.897V65.5568H147.543V64.3636ZM148.516 72H150.003V64.3636H148.516V72ZM149.267 63.1854C149.779 63.1854 150.207 62.7876 150.207 62.3004C150.207 61.8132 149.779 61.4105 149.267 61.4105C148.75 61.4105 148.328 61.8132 148.328 62.3004C148.328 62.7876 148.75 63.1854 149.267 63.1854ZM152.929 61.8182H151.443V72H152.929V61.8182ZM157.66 72.1541C159.326 72.1541 160.504 71.3338 160.842 70.0909L159.435 69.8374C159.167 70.5582 158.52 70.9261 157.675 70.9261C156.402 70.9261 155.547 70.1009 155.508 68.6293H160.937V68.1023C160.937 65.343 159.286 64.2642 157.556 64.2642C155.428 64.2642 154.026 65.8849 154.026 68.2315C154.026 70.603 155.408 72.1541 157.66 72.1541ZM155.513 67.5156C155.572 66.4318 156.358 65.4922 157.566 65.4922C158.719 65.4922 159.475 66.3473 159.48 67.5156H155.513Z" fill="#959595"/>
</svg>
