<svg width="97" height="123" viewBox="0 0 97 123" fill="none" xmlns="http://www.w3.org/2000/svg">
<path d="M12.6667 4L13.0918 3.09489C12.7554 2.93684 12.359 2.97846 12.0628 3.20294C11.7665 3.42743 11.6192 3.79773 11.6803 4.1644L12.6667 4ZM18.6667 16L17.6965 15.7575C17.6018 16.1363 17.7363 16.5357 18.0409 16.78C18.3456 17.0244 18.7646 17.0691 19.1139 16.8944L18.6667 16ZM22.6667 9.33333L23.5096 8.79538C23.2706 8.42079 22.813 8.24888 22.3865 8.37339C21.9599 8.4979 21.6667 8.88897 21.6667 9.33333H22.6667ZM18 8.66667L18.8785 8.18888L18 8.66667ZM24.3333 18.6667C24.3333 23.269 20.6024 27 16 27V29C21.7069 29 26.3333 24.3736 26.3333 18.6667H24.3333ZM16 27C11.3976 27 7.66666 23.269 7.66666 18.6667H5.66666C5.66666 24.3736 10.293 29 16 29V27ZM7.66666 18.6667C7.66666 17.9129 7.67001 17.0546 8.03004 15.9964C8.38973 14.9391 9.13059 13.6169 10.7071 12.0404L9.29288 10.6262C7.53605 12.3831 6.61025 13.96 6.13661 15.3522C5.6633 16.7435 5.66666 17.8852 5.66666 18.6667H7.66666ZM10.7071 12.0404C12.5483 10.1993 13.2904 8.16393 13.5681 6.59045C13.7066 5.80589 13.7302 5.13419 13.7184 4.6527C13.7126 4.41154 13.6978 4.21675 13.6837 4.07777C13.6767 4.00824 13.6698 3.95253 13.6643 3.91182C13.6616 3.89146 13.6592 3.87483 13.6572 3.86208C13.6563 3.85571 13.6554 3.8503 13.6547 3.84588C13.6544 3.84367 13.6541 3.84171 13.6538 3.84C13.6536 3.83914 13.6535 3.83834 13.6534 3.83761C13.6533 3.83725 13.6532 3.83674 13.6532 3.83656C13.6531 3.83607 13.6531 3.8356 12.6667 4C11.6803 4.1644 11.6802 4.16396 11.6801 4.16353C11.6801 4.16341 11.68 4.163 11.68 4.16275C11.6799 4.16227 11.6798 4.16184 11.6798 4.16146C11.6797 4.16072 11.6796 4.16021 11.6795 4.15994C11.6794 4.15939 11.6795 4.15977 11.6797 4.16107C11.6801 4.16366 11.681 4.1699 11.6823 4.17965C11.685 4.19916 11.6892 4.23265 11.6939 4.279C11.7032 4.37179 11.7145 4.51555 11.719 4.70147C11.7281 5.07414 11.7101 5.61077 11.5985 6.24288C11.3762 7.50274 10.7851 9.13405 9.29288 10.6262L10.7071 12.0404ZM19.1139 16.8944C21.4161 15.7433 22.5538 13.8245 23.1096 12.2495C23.3876 11.4619 23.526 10.7463 23.5954 10.2259C23.6302 9.9648 23.648 9.75023 23.6571 9.59706C23.6616 9.5204 23.664 9.4589 23.6653 9.41439C23.6659 9.39213 23.6663 9.37409 23.6664 9.36051C23.6665 9.35372 23.6666 9.34804 23.6666 9.3435C23.6666 9.34123 23.6666 9.33925 23.6666 9.33755C23.6667 9.33671 23.6667 9.33593 23.6667 9.33523C23.6667 9.33487 23.6667 9.3344 23.6667 9.33423C23.6667 9.33377 23.6667 9.33333 22.6667 9.33333C21.6667 9.33333 21.6667 9.33293 21.6667 9.33255C21.6667 9.33244 21.6667 9.33208 21.6667 9.33187C21.6667 9.33145 21.6667 9.3311 21.6667 9.33082C21.6667 9.33025 21.6667 9.32996 21.6667 9.32994C21.6667 9.32991 21.6667 9.33095 21.6666 9.33305C21.6666 9.33726 21.6664 9.34567 21.6661 9.35807C21.6654 9.3829 21.6639 9.42361 21.6606 9.47846C21.6541 9.58831 21.6406 9.75395 21.6129 9.96159C21.5573 10.3787 21.4457 10.9547 21.2237 11.5838C20.7795 12.8422 19.9172 14.2567 18.2194 15.1056L19.1139 16.8944ZM22.6667 9.33333C21.8237 9.87129 21.8235 9.87107 21.8234 9.87087C21.8234 9.87083 21.8233 9.87065 21.8232 9.87055C21.8231 9.87037 21.823 9.87026 21.823 9.8702C21.8229 9.87009 21.823 9.87023 21.8233 9.87061C21.8237 9.87139 21.8249 9.87316 21.8266 9.87591C21.83 9.88142 21.8359 9.89085 21.844 9.90412C21.8603 9.93065 21.8856 9.97249 21.9186 10.0289C21.9848 10.1416 22.0818 10.3123 22.1995 10.5346C22.4351 10.9798 22.7522 11.6294 23.0698 12.4341C23.7078 14.0505 24.3333 16.2551 24.3333 18.6667H26.3333C26.3333 15.9236 25.6255 13.4615 24.9302 11.6999C24.5811 10.8156 24.2315 10.0984 23.9671 9.59896C23.8348 9.34902 23.7235 9.15295 23.6438 9.01706C23.604 8.94909 23.572 8.89612 23.5492 8.85892C23.5378 8.84033 23.5287 8.82567 23.522 8.81504C23.5187 8.80973 23.516 8.80543 23.5139 8.80215C23.5129 8.80051 23.512 8.79912 23.5113 8.79799C23.5109 8.79743 23.5106 8.79693 23.5103 8.79649C23.5102 8.79628 23.51 8.796 23.51 8.79589C23.5098 8.79563 23.5096 8.79538 22.6667 9.33333ZM12.6667 4C12.2415 4.90511 12.2413 4.90502 12.2411 4.90493C12.2411 4.90491 12.2409 4.90484 12.2408 4.9048C12.2406 4.90472 12.2405 4.90467 12.2405 4.90464C12.2404 4.90459 12.2405 4.90465 12.2408 4.90481C12.2415 4.90513 12.2431 4.90587 12.2455 4.90703C12.2503 4.90935 12.2586 4.91334 12.2701 4.91897C12.2932 4.93025 12.3293 4.94812 12.377 4.97241C12.4723 5.02102 12.6137 5.09519 12.7897 5.19366C13.1426 5.39105 13.6303 5.68364 14.1636 6.06102C15.2493 6.82922 16.4389 7.88942 17.1215 9.14445L18.8785 8.18888C17.9822 6.54092 16.5051 5.26779 15.3189 4.4284C14.7162 4.00199 14.1666 3.67222 13.7662 3.44821C13.5655 3.33598 13.4013 3.24968 13.2852 3.1905C13.2271 3.16089 13.181 3.13803 13.1483 3.12206C13.1319 3.11407 13.1189 3.1078 13.1095 3.10327C13.1047 3.101 13.1009 3.09917 13.0979 3.09777C13.0965 3.09707 13.0952 3.09648 13.0942 3.096C13.0937 3.09576 13.0932 3.09555 13.0928 3.09536C13.0926 3.09527 13.0924 3.09515 13.0923 3.09511C13.0921 3.095 13.0918 3.09489 12.6667 4ZM17.1215 9.14445C18.3102 11.33 18.324 13.2475 17.6965 15.7575L19.6368 16.2425C20.3427 13.4191 20.3799 10.9495 18.8785 8.18888L17.1215 9.14445Z" fill="#F5F5F5"/>
<path d="M6.96023 116.382C6.71165 115.089 5.67756 114.264 3.88778 114.264C2.0483 114.264 0.795455 115.169 0.800426 116.581C0.795455 117.695 1.48153 118.43 2.94815 118.734L4.25071 119.007C4.9517 119.161 5.27983 119.445 5.27983 119.877C5.27983 120.399 4.71307 120.792 3.85795 120.792C3.03267 120.792 2.49574 120.434 2.34162 119.748L0.586648 119.917C0.810369 121.319 1.98864 122.149 3.86293 122.149C5.77202 122.149 7.11932 121.16 7.12429 119.713C7.11932 118.624 6.41832 117.958 4.97656 117.645L3.67401 117.366C2.89844 117.192 2.5902 116.924 2.59517 116.482C2.5902 115.964 3.16193 115.607 3.91264 115.607C4.7429 115.607 5.1804 116.059 5.3196 116.561L6.96023 116.382ZM11.8615 114.364H10.3551V112.534H8.55541V114.364H7.47161V115.756H8.55541V120.001C8.54547 121.438 9.5895 122.144 10.9418 122.104C11.4538 122.089 11.8068 121.99 12.0007 121.925L11.6975 120.518C11.598 120.543 11.3942 120.588 11.1705 120.588C10.7181 120.588 10.3551 120.429 10.3551 119.703V115.756H11.8615V114.364ZM15.0041 122.154C16.2023 122.154 16.9182 121.592 17.2463 120.951H17.306V122H19.0361V116.889C19.0361 114.871 17.3905 114.264 15.9338 114.264C14.328 114.264 13.095 114.98 12.6973 116.372L14.3777 116.611C14.5567 116.089 15.0638 115.641 15.9437 115.641C16.779 115.641 17.2364 116.069 17.2364 116.82V116.849C17.2364 117.366 16.6945 117.391 15.3472 117.536C13.8656 117.695 12.4487 118.137 12.4487 119.857C12.4487 121.359 13.5474 122.154 15.0041 122.154ZM15.4714 120.832C14.7207 120.832 14.1838 120.489 14.1838 119.827C14.1838 119.136 14.7854 118.848 15.5908 118.734C16.0631 118.669 17.0077 118.55 17.2413 118.361V119.261C17.2413 120.111 16.5552 120.832 15.4714 120.832ZM20.2857 122H22.0854V117.511C22.0854 116.541 22.8163 115.855 23.8056 115.855C24.1089 115.855 24.4867 115.91 24.6408 115.96V114.304C24.4768 114.274 24.1934 114.254 23.9945 114.254C23.1195 114.254 22.3887 114.751 22.1103 115.636H22.0308V114.364H20.2857V122ZM29.4999 114.364H27.9935V112.534H26.1938V114.364H25.11V115.756H26.1938V120.001C26.1838 121.438 27.2279 122.144 28.5801 122.104C29.0922 122.089 29.4452 121.99 29.6391 121.925L29.3358 120.518C29.2364 120.543 29.0326 120.588 28.8088 120.588C28.3564 120.588 27.9935 120.429 27.9935 119.703V115.756H29.4999V114.364ZM37.4791 111.818H35.7242L33.1936 113.444V115.134L35.575 113.613H35.6347V122H37.4791V111.818ZM43.2331 122.139C45.4305 122.154 46.9071 120.643 46.9021 118.629C46.9071 116.705 45.5349 115.313 43.7501 115.313C42.6564 115.313 41.6919 115.845 41.2046 116.72H41.135C41.14 114.577 41.9255 113.275 43.3375 113.275C44.2125 113.275 44.8041 113.782 44.993 114.562H46.8076C46.5889 112.917 45.2615 111.679 43.3375 111.679C40.8914 111.679 39.3453 113.717 39.3453 117.197C39.3403 120.931 41.2792 122.129 43.2331 122.139ZM43.2231 120.648C42.1343 120.648 41.3389 119.748 41.3339 118.684C41.3439 117.615 42.1691 116.72 43.248 116.72C44.3268 116.72 45.1173 117.575 45.1123 118.669C45.1173 119.783 44.3019 120.648 43.2231 120.648ZM49.8421 117.526C49.8421 116.422 50.5282 115.786 51.4927 115.786C52.4373 115.786 52.9941 116.387 52.9941 117.416V122H54.7938V117.138C54.7938 115.293 53.7498 114.264 52.1638 114.264C50.9905 114.264 50.2448 114.796 49.8918 115.661H49.8023V111.818H48.0424V122H49.8421V117.526ZM62.8489 114.364H61.2629V113.762C61.2629 113.165 61.5115 112.832 62.1827 112.832C62.4661 112.832 62.7047 112.897 62.8538 112.942L63.2168 111.55C62.9831 111.47 62.471 111.341 61.8496 111.341C60.5222 111.341 59.4632 112.102 59.4632 113.643V114.364H58.3347V115.756H59.4632V122H61.2629V115.756H62.8489V114.364ZM65.636 122.154C66.8341 122.154 67.5501 121.592 67.8782 120.951H67.9378V122H69.6679V116.889C69.6679 114.871 68.0224 114.264 66.5657 114.264C64.9599 114.264 63.7269 114.98 63.3292 116.372L65.0096 116.611C65.1885 116.089 65.6956 115.641 66.5756 115.641C67.4108 115.641 67.8682 116.069 67.8682 116.82V116.849C67.8682 117.366 67.3263 117.391 65.979 117.536C64.4975 117.695 63.0806 118.137 63.0806 119.857C63.0806 121.359 64.1793 122.154 65.636 122.154ZM66.1033 120.832C65.3526 120.832 64.8157 120.489 64.8157 119.827C64.8157 119.136 65.4172 118.848 66.2226 118.734C66.6949 118.669 67.6395 118.55 67.8732 118.361V119.261C67.8732 120.111 67.1871 120.832 66.1033 120.832ZM76.9531 116.382C76.7045 115.089 75.6704 114.264 73.8807 114.264C72.0412 114.264 70.7883 115.169 70.7933 116.581C70.7883 117.695 71.4744 118.43 72.941 118.734L74.2436 119.007C74.9446 119.161 75.2727 119.445 75.2727 119.877C75.2727 120.399 74.706 120.792 73.8508 120.792C73.0256 120.792 72.4886 120.434 72.3345 119.748L70.5795 119.917C70.8033 121.319 71.9815 122.149 73.8558 122.149C75.7649 122.149 77.1122 121.16 77.1172 119.713C77.1122 118.624 76.4112 117.958 74.9695 117.645L73.6669 117.366C72.8913 117.192 72.5831 116.924 72.5881 116.482C72.5831 115.964 73.1548 115.607 73.9055 115.607C74.7358 115.607 75.1733 116.059 75.3125 116.561L76.9531 116.382ZM81.8544 114.364H80.348V112.534H78.5483V114.364H77.4645V115.756H78.5483V120.001C78.5384 121.438 79.5824 122.144 80.9347 122.104C81.4467 122.089 81.7997 121.99 81.9936 121.925L81.6903 120.518C81.5909 120.543 81.3871 120.588 81.1634 120.588C80.7109 120.588 80.348 120.429 80.348 119.703V115.756H81.8544V114.364Z" fill="#F5F5F5"/>
</svg>
