<svg width="71" height="59" viewBox="0 0 71 59" fill="none" xmlns="http://www.w3.org/2000/svg">
<path d="M16 4L16.6364 3.22863C16.2669 2.92379 15.7331 2.92379 15.3636 3.22863L16 4ZM16 29C18.4101 29 20.6901 28.2615 22.3674 26.5676C24.0471 24.8713 25 22.3409 25 19H23C23 21.963 22.162 23.9326 20.9463 25.1603C19.7282 26.3905 18.0082 27 16 27V29ZM25 19C25 14.4913 22.8604 10.5314 20.8036 7.75477C19.7678 6.35645 18.7334 5.23166 17.9571 4.45539C17.5685 4.06674 17.2431 3.76405 17.0127 3.55671C16.8975 3.453 16.8059 3.37303 16.7419 3.31799C16.7099 3.29046 16.6848 3.26915 16.667 3.25421C16.6581 3.24674 16.6511 3.24086 16.646 3.23659C16.6434 3.23446 16.6413 3.23273 16.6397 3.2314C16.6389 3.23073 16.6383 3.23017 16.6377 3.22971C16.6374 3.22948 16.6371 3.22921 16.6369 3.22909C16.6366 3.22885 16.6364 3.22863 16 4C15.3636 4.77137 15.3634 4.7712 15.3632 4.77106C15.3632 4.77105 15.3631 4.77093 15.363 4.7709C15.363 4.77084 15.363 4.77088 15.3632 4.77101C15.3635 4.77129 15.3643 4.77197 15.3656 4.77304C15.3682 4.77518 15.3726 4.77889 15.3789 4.78416C15.3914 4.79471 15.4112 4.81149 15.4378 4.83436C15.491 4.88009 15.5713 4.95013 15.6748 5.04329C15.8819 5.2297 16.1815 5.50826 16.5429 5.86961C17.2666 6.59334 18.2322 7.64355 19.1964 8.94523C21.1396 11.5686 23 15.1087 23 19H25ZM16 4C15.3636 3.22863 15.3634 3.22885 15.3631 3.22909C15.3629 3.22921 15.3626 3.22948 15.3623 3.22971C15.3618 3.23017 15.3611 3.23073 15.3603 3.2314C15.3587 3.23273 15.3566 3.23446 15.354 3.23659C15.3489 3.24086 15.3419 3.24674 15.333 3.25421C15.3152 3.26915 15.2901 3.29046 15.2581 3.31799C15.1941 3.37303 15.1025 3.453 14.9873 3.55671C14.7569 3.76405 14.4315 4.06674 14.0429 4.45539C13.2666 5.23166 12.2322 6.35645 11.1964 7.75477C9.13965 10.5314 7 14.4913 7 19H9C9 15.1087 10.8604 11.5686 12.8036 8.94523C13.7678 7.64355 14.7334 6.59334 15.4571 5.86961C15.8185 5.50826 16.1181 5.2297 16.3252 5.04329C16.4287 4.95013 16.509 4.88009 16.5622 4.83436C16.5888 4.81149 16.6086 4.79471 16.6211 4.78416C16.6274 4.77889 16.6318 4.77518 16.6344 4.77304C16.6357 4.77197 16.6365 4.77129 16.6368 4.77101C16.637 4.77088 16.637 4.77084 16.637 4.7709C16.6369 4.77093 16.6368 4.77105 16.6368 4.77106C16.6366 4.7712 16.6364 4.77137 16 4ZM7 19C7 22.3409 7.95287 24.8713 9.63257 26.5676C11.3099 28.2615 13.5899 29 16 29V27C13.9918 27 12.2718 26.3905 11.0537 25.1603C9.83798 23.9326 9 21.963 9 19H7ZM24 19C23.4961 18.1362 23.4965 18.136 23.4969 18.1358C23.497 18.1357 23.4973 18.1355 23.4975 18.1354C23.4979 18.1352 23.4983 18.135 23.4986 18.1348C23.4991 18.1345 23.4995 18.1343 23.4996 18.1342C23.4998 18.1341 23.4991 18.1345 23.4975 18.1354C23.4942 18.1372 23.4873 18.1411 23.4769 18.1468C23.456 18.1581 23.4211 18.1766 23.3731 18.2006C23.2769 18.2487 23.1291 18.3183 22.9373 18.396C22.5521 18.5519 21.9985 18.7365 21.3356 18.8469C20.0169 19.0667 18.2913 18.9924 16.5547 17.8346L15.4453 19.4987C17.7087 21.0076 19.9831 21.1 21.6644 20.8197C22.5015 20.6802 23.1979 20.4481 23.6877 20.2499C23.9334 20.1504 24.1293 20.0586 24.2675 19.9895C24.3367 19.9549 24.3916 19.9259 24.4313 19.9044C24.4511 19.8936 24.4672 19.8847 24.4793 19.8778C24.4854 19.8744 24.4905 19.8715 24.4946 19.8692C24.4966 19.868 24.4984 19.8669 24.5 19.866C24.5007 19.8656 24.5015 19.8652 24.5021 19.8648C24.5024 19.8646 24.5029 19.8644 24.503 19.8643C24.5035 19.864 24.5039 19.8638 24 19ZM16.5547 17.8346C14.2456 16.2952 11.9241 16.3999 10.2324 16.8698C9.39108 17.1035 8.6942 17.4291 8.20719 17.6958C7.96264 17.8297 7.76807 17.9504 7.63144 18.04C7.56304 18.0848 7.50893 18.122 7.47008 18.1494C7.45065 18.1631 7.43501 18.1743 7.4233 18.1828C7.41744 18.1871 7.41256 18.1907 7.40867 18.1936C7.40673 18.195 7.40503 18.1962 7.40359 18.1973C7.40286 18.1979 7.4022 18.1984 7.40161 18.1988C7.40131 18.199 7.4009 18.1993 7.40076 18.1994C7.40037 18.1997 7.4 18.2 8 19C8.6 19.8 8.59966 19.8003 8.59934 19.8005C8.59925 19.8006 8.59894 19.8008 8.59876 19.8009C8.59841 19.8012 8.59811 19.8014 8.59787 19.8016C8.5974 19.8019 8.59716 19.8021 8.59716 19.8021C8.59715 19.8021 8.59806 19.8015 8.5999 19.8001C8.60356 19.7975 8.61088 19.7922 8.62172 19.7845C8.64342 19.7693 8.67915 19.7446 8.72794 19.7126C8.82568 19.6485 8.97486 19.5557 9.16781 19.45C9.5558 19.2375 10.1089 18.9798 10.7676 18.7969C12.0759 18.4334 13.7544 18.3715 15.4453 19.4987L16.5547 17.8346Z" fill="#F5F5F5"/>
<path d="M3.12216 56.1541C4.32031 56.1541 5.03622 55.5923 5.36435 54.951H5.42401V56H7.15412V50.8892C7.15412 48.8707 5.50852 48.2642 4.05185 48.2642C2.44602 48.2642 1.21307 48.9801 0.815341 50.3722L2.49574 50.6108C2.67472 50.0888 3.18182 49.6413 4.06179 49.6413C4.89702 49.6413 5.3544 50.0689 5.3544 50.8196V50.8494C5.3544 51.3665 4.8125 51.3913 3.4652 51.5355C1.98366 51.6946 0.566761 52.1371 0.566761 53.8572C0.566761 55.3587 1.66548 56.1541 3.12216 56.1541ZM3.58949 54.8317C2.83878 54.8317 2.30185 54.4886 2.30185 53.8274C2.30185 53.1364 2.90341 52.848 3.70881 52.7337C4.18111 52.669 5.12571 52.5497 5.35938 52.3608V53.2607C5.35938 54.1108 4.6733 54.8317 3.58949 54.8317ZM11.2376 56.1342C12.5501 56.1342 13.1417 55.3537 13.4251 54.7969H13.5345V56H15.3043V45.8182H13.4997V49.6264H13.4251C13.1516 49.0746 12.5899 48.2642 11.2426 48.2642C9.47764 48.2642 8.09057 49.6463 8.09057 52.1918C8.09057 54.7074 9.43787 56.1342 11.2376 56.1342ZM11.7397 54.6577C10.5515 54.6577 9.92509 53.6136 9.92509 52.1818C9.92509 50.7599 10.5416 49.7408 11.7397 49.7408C12.8981 49.7408 13.5345 50.7003 13.5345 52.1818C13.5345 53.6634 12.8882 54.6577 11.7397 54.6577ZM19.4959 56.1342C20.8084 56.1342 21.4001 55.3537 21.6834 54.7969H21.7928V56H23.5627V45.8182H21.758V49.6264H21.6834C21.41 49.0746 20.8482 48.2642 19.5009 48.2642C17.736 48.2642 16.3489 49.6463 16.3489 52.1918C16.3489 54.7074 17.6962 56.1342 19.4959 56.1342ZM19.9981 54.6577C18.8099 54.6577 18.1834 53.6136 18.1834 52.1818C18.1834 50.7599 18.7999 49.7408 19.9981 49.7408C21.1565 49.7408 21.7928 50.7003 21.7928 52.1818C21.7928 53.6634 21.1465 54.6577 19.9981 54.6577ZM29.6329 45.8182H27.8332V56H29.6329V45.8182ZM30.9235 56H32.7233V48.3636H30.9235V56ZM31.8284 47.2798C32.4001 47.2798 32.8674 46.8423 32.8674 46.3054C32.8674 45.7635 32.4001 45.326 31.8284 45.326C31.2517 45.326 30.7843 45.7635 30.7843 46.3054C30.7843 46.8423 31.2517 47.2798 31.8284 47.2798ZM40.9095 58.8636V48.3636H39.1396V49.6264H39.0352C38.7618 49.0746 38.2 48.2642 36.8527 48.2642C35.0878 48.2642 33.7007 49.6463 33.7007 52.1918C33.7007 54.7074 35.048 56.1342 36.8477 56.1342C38.1602 56.1342 38.7519 55.3537 39.0352 54.7969H39.1098V58.8636H40.9095ZM39.1446 52.1818C39.1446 53.6634 38.4983 54.6577 37.3499 54.6577C36.1617 54.6577 35.5352 53.6136 35.5352 52.1818C35.5352 50.7599 36.1517 49.7408 37.3499 49.7408C38.5083 49.7408 39.1446 50.7003 39.1446 52.1818ZM47.0711 52.7884C47.0711 53.9517 46.2409 54.5284 45.4454 54.5284C44.5804 54.5284 44.0037 53.9169 44.0037 52.9474V48.3636H42.2039V53.2259C42.2039 55.0604 43.248 56.0994 44.7494 56.0994C45.8929 56.0994 46.6983 55.4979 47.0463 54.6428H47.1258V56H48.8708V48.3636H47.0711V52.7884ZM50.1615 56H51.9612V48.3636H50.1615V56ZM51.0663 47.2798C51.6381 47.2798 52.1054 46.8423 52.1054 46.3054C52.1054 45.7635 51.6381 45.326 51.0663 45.326C50.4896 45.326 50.0223 45.7635 50.0223 46.3054C50.0223 46.8423 50.4896 47.2798 51.0663 47.2798ZM56.0857 56.1342C57.3982 56.1342 57.9898 55.3537 58.2732 54.7969H58.3826V56H60.1525V45.8182H58.3478V49.6264H58.2732C57.9998 49.0746 57.438 48.2642 56.0907 48.2642C54.3258 48.2642 52.9387 49.6463 52.9387 52.1918C52.9387 54.7074 54.286 56.1342 56.0857 56.1342ZM56.5878 54.6577C55.3996 54.6577 54.7732 53.6136 54.7732 52.1818C54.7732 50.7599 55.3897 49.7408 56.5878 49.7408C57.7462 49.7408 58.3826 50.7003 58.3826 52.1818C58.3826 53.6634 57.7363 54.6577 56.5878 54.6577Z" fill="#F5F5F5"/>
</svg>
