<svg width="226" height="451" viewBox="0 0 226 451" fill="none" xmlns="http://www.w3.org/2000/svg">
<path opacity="0.5" d="M2.13981e-05 444C-120.95 444 -219 345.95 -219 225C-219 104.05 -120.95 6 2.13981e-05 6M68.7444 432.993C143.169 408.408 199.927 344.993 215.028 266.738M215.999 188.664C202.519 107.933 144.874 42.1548 68.7444 17.0067" stroke="#B6EBBB" stroke-width="2" stroke-linecap="round" stroke-linejoin="round"/>
<path d="M11.8581 0.18125L10.3627 0.123512L7.76006 1.68477L7.70328 3.15526L10.1989 1.65953L10.2585 1.66183L9.92515 10.296L11.4652 10.3555L11.8581 0.18125Z" fill="#4CDA5B"/>
<path d="M15.2305 4.84227C15.771 4.87987 16.2531 4.46985 16.2914 3.91934C16.329 3.37874 15.9087 2.90098 15.3681 2.86338C14.8225 2.82544 14.3451 3.24076 14.3075 3.78136C14.2692 4.33187 14.6849 4.80432 15.2305 4.84227ZM14.8448 10.3871C15.3854 10.4247 15.8674 10.0147 15.9057 9.46418C15.9433 8.92358 15.523 8.44583 14.9824 8.40823C14.4369 8.37028 13.9595 8.7856 13.9219 9.3262C13.8836 9.87672 14.2992 10.3492 14.8448 10.3871Z" fill="#4CDA5B"/>
<path d="M21.3237 11.3772C23.6661 11.5855 25.2078 9.79604 25.5033 6.47321C25.7966 3.17515 24.5755 1.13496 22.253 0.928408C19.9255 0.721419 18.369 2.5096 18.0703 5.81217C17.7752 9.13004 18.9769 11.1635 21.3237 11.3772ZM21.4413 10.055C20.0696 9.93304 19.3651 8.48282 19.5905 5.94737C19.8201 3.42227 20.7708 2.10429 22.1376 2.22584C23.4994 2.34695 24.2076 3.81247 23.983 6.33801C23.7575 8.87346 22.8081 10.1766 21.4413 10.055Z" fill="#4CDA5B"/>
<path d="M29.7773 12.5116C32.1088 12.8187 33.7248 11.096 34.1605 7.78868C34.593 4.50597 33.4593 2.41596 31.1476 2.11139C28.831 1.80617 27.2002 3.52692 26.7621 6.81391C26.327 10.1163 27.4416 12.1988 29.7773 12.5116ZM29.9507 11.1955C28.5854 11.0156 27.9428 9.53693 28.2753 7.01328C28.6114 4.50014 29.6171 3.22355 30.9775 3.40279C32.3329 3.58137 32.9785 5.07552 32.6473 7.58931C32.3148 10.113 31.3111 11.3748 29.9507 11.1955Z" fill="#4CDA5B"/>
<path d="M39.1523 16.8303L40.6125 17.1088L41.3717 13.1287L41.4596 13.1455C41.632 13.6744 42.0099 14.6119 43.3773 14.8727C45.194 15.2192 46.7901 14.0154 47.2531 11.5883C47.7169 9.15631 46.6518 7.47021 44.84 7.12463C43.4482 6.85916 42.7831 7.61296 42.4358 8.02753L42.3137 8.00424L42.5456 6.78824L41.1196 6.51625L39.1523 16.8303ZM41.8351 10.5397C42.1341 8.97212 43.0162 8.06233 44.2908 8.30544C45.6143 8.55787 46.0651 9.80288 45.781 11.2924C45.4941 12.7965 44.5915 13.8137 43.2876 13.565C42.0326 13.3256 41.5343 12.1171 41.8351 10.5397Z" fill="#4CDA5B"/>
<path d="M48.2036 15.8554L49.6508 16.1949L50.7261 11.6113C50.9612 10.6093 51.8265 10.077 52.6493 10.27C53.4528 10.4585 53.8845 11.1215 53.6949 11.9298L52.5355 16.8717L53.9779 17.2101L55.0896 12.4715C55.2996 11.5761 55.9987 11.0558 56.9426 11.2772C57.7073 11.4567 58.2366 12.0302 58.0004 13.037L56.8626 17.8868L58.3098 18.2263L59.4794 13.241C59.878 11.5421 59.128 10.4725 57.7825 10.1568C56.7128 9.90585 55.789 10.2304 55.2446 10.9402L55.1671 10.922C55.0336 10.0328 54.467 9.37896 53.4747 9.14618C52.4922 8.91567 51.6466 9.23306 51.1449 9.97838L51.053 9.95681L51.3369 8.74676L49.9477 8.42087L48.2036 15.8554Z" fill="#4CDA5B"/>
<path d="M214.148 205.337C214.367 207.373 215.962 208.672 217.933 208.455C219.891 208.249 221.168 206.732 220.97 204.888C220.889 204.136 220.527 203.47 220.099 203.116L220.093 203.057L222.96 203.074L223.422 207.369L224.732 207.228L224.133 201.662L218.971 201.643L218.914 203.064C219.296 203.408 219.601 204.065 219.667 204.678C219.787 205.88 218.981 206.847 217.745 206.98C216.529 207.111 215.558 206.36 215.433 205.198C215.328 204.22 215.867 203.377 216.729 203.204L216.569 201.721C214.964 201.954 213.948 203.478 214.148 205.337Z" fill="#4CDA5B"/>
<path d="M220.436 211.459C220.471 212 220.942 212.422 221.493 212.386C222.034 212.351 222.451 211.87 222.415 211.33C222.38 210.784 221.904 210.366 221.363 210.402C220.813 210.438 220.4 210.913 220.436 211.459ZM214.889 211.821C214.925 212.362 215.396 212.784 215.946 212.748C216.487 212.713 216.904 212.233 216.869 211.692C216.833 211.146 216.358 210.729 215.817 210.764C215.266 210.8 214.854 211.275 214.889 211.821Z" fill="#4CDA5B"/>
<path d="M214.831 218.239C214.939 220.588 216.92 221.875 220.252 221.721C223.56 221.569 225.417 220.084 225.31 217.755C225.202 215.421 223.221 214.119 219.908 214.267C216.581 214.42 214.727 215.884 214.831 218.239ZM216.157 218.177C216.094 216.802 217.436 215.909 219.979 215.791C222.512 215.679 223.946 216.444 224.009 217.815C224.072 219.181 222.715 220.08 220.182 220.196C217.639 220.314 216.22 219.548 216.157 218.177Z" fill="#4CDA5B"/>
<path d="M214.871 227.321C214.88 229.673 216.805 231.042 220.141 231.029C223.452 231.016 225.37 229.611 225.361 227.28C225.352 224.943 223.427 223.559 220.111 223.567C216.78 223.58 214.867 224.964 214.871 227.321ZM216.198 227.316C216.193 225.939 217.572 225.103 220.117 225.093C222.653 225.088 224.053 225.913 224.058 227.285C224.064 228.652 222.67 229.493 220.135 229.503C217.589 229.513 216.204 228.688 216.198 227.316Z" fill="#4CDA5B"/>
<path d="M211.779 236.573L211.699 238.057L215.745 238.275L215.74 238.364C215.239 238.606 214.361 239.107 214.286 240.497C214.187 242.343 215.594 243.763 218.061 243.896C220.533 244.029 222.061 242.747 222.16 240.905C222.236 239.491 221.4 238.933 220.943 238.644L220.949 238.52L222.185 238.587L222.263 237.137L211.779 236.573ZM218.373 238.387C219.966 238.472 220.986 239.224 220.916 240.52C220.844 241.865 219.671 242.479 218.157 242.398C216.628 242.316 215.498 241.558 215.57 240.232C215.638 238.956 216.769 238.3 218.373 238.387Z" fill="#4CDA5B"/>
<path d="M213.957 245.23L213.814 246.71L218.501 247.162C219.525 247.261 220.169 248.047 220.087 248.888C220.008 249.71 219.409 250.226 218.583 250.147L213.53 249.659L213.388 251.134L218.232 251.601C219.148 251.69 219.757 252.313 219.664 253.278C219.589 254.06 219.091 254.661 218.062 254.562L213.103 254.083L212.96 255.563L218.058 256.055C219.795 256.222 220.754 255.336 220.887 253.96C220.992 252.867 220.547 251.994 219.771 251.55L219.778 251.471C220.642 251.219 221.214 250.57 221.312 249.556C221.409 248.551 220.981 247.756 220.175 247.358L220.184 247.264L221.421 247.384L221.558 245.964L213.957 245.23Z" fill="#4CDA5B"/>
<path d="M10.9247 439.407C8.78858 439.494 7.47035 441.099 7.56708 443.025C7.66952 444.967 9.14501 446.296 10.9077 446.208C11.9852 446.154 12.8823 445.581 13.3608 444.701L13.4402 444.697C13.5527 447.036 12.7424 448.445 11.2528 448.52C10.2796 448.569 9.62402 448.004 9.38178 447.146L7.86736 447.222C8.17331 448.854 9.50277 449.952 11.3201 449.861C13.6836 449.742 15.0613 447.637 14.8826 444.077C14.6911 440.363 12.7378 439.331 10.9247 439.407ZM10.9945 440.698C12.1712 440.639 13.0903 441.593 13.1464 442.71C13.2082 443.842 12.3394 444.881 11.1776 444.94C10.0107 444.998 9.11973 444.107 9.05568 442.931C8.99635 441.749 9.8276 440.756 10.9945 440.698Z" fill="#4CDA5B"/>
<path d="M17.4509 443.861C17.9912 443.819 18.4082 443.343 18.3656 442.793C18.3239 442.253 17.8383 441.841 17.298 441.883C16.7528 441.925 16.3411 442.406 16.3829 442.946C16.4254 443.496 16.9057 443.903 17.4509 443.861ZM17.8793 449.403C18.4196 449.361 18.8365 448.885 18.794 448.335C18.7522 447.794 18.2667 447.383 17.7264 447.425C17.1811 447.467 16.7695 447.948 16.8113 448.488C16.8538 449.038 17.334 449.445 17.8793 449.403Z" fill="#4CDA5B"/>
<path d="M23.9244 448.92C26.2622 448.667 27.4246 446.611 27.0652 443.294C26.7085 440.002 25.1124 438.24 22.7943 438.491C20.4712 438.743 19.294 440.801 19.6463 444.098C20.0051 447.41 21.581 449.169 23.9244 448.92ZM23.7814 447.6C22.4122 447.749 21.4379 446.464 21.1637 443.934C20.8955 441.412 21.5704 439.934 22.9346 439.786C24.2938 439.639 25.2747 440.938 25.5478 443.458C25.8221 445.989 25.1455 447.453 23.7814 447.6Z" fill="#4CDA5B"/>
<path d="M33.3715 447.725C35.6966 447.373 36.7711 445.27 36.272 441.971C35.7765 438.698 34.1074 437.004 31.8019 437.353C29.4916 437.703 28.4024 439.808 28.8936 443.088C29.392 446.381 31.0407 448.073 33.3715 447.725ZM33.1729 446.413C31.8113 446.619 30.7835 445.376 30.4027 442.86C30.0282 440.352 30.6401 438.846 31.9968 438.641C33.3486 438.436 34.3835 439.693 34.7629 442.2C35.1437 444.717 34.5296 446.207 33.1729 446.413Z" fill="#4CDA5B"/>
<path d="M43.7153 448.723L45.1699 448.417L44.3349 444.452L44.4225 444.433C44.7856 444.855 45.4959 445.574 46.8581 445.287C48.6678 444.906 49.676 443.179 49.1668 440.762C48.6566 438.339 47.0234 437.194 45.2186 437.574C43.8321 437.866 43.5093 438.818 43.3488 439.335L43.2271 439.36L42.972 438.149L41.5515 438.448L43.7153 448.723ZM43.7637 441.884C43.4349 440.323 43.8977 439.143 45.1674 438.876C46.4858 438.598 47.3821 439.573 47.6946 441.056C48.0101 442.555 47.5698 443.842 46.2709 444.115C45.0206 444.378 44.0947 443.456 43.7637 441.884Z" fill="#4CDA5B"/>
<path d="M51.7526 444.129L53.1903 443.751L51.9934 439.198C51.7317 438.202 52.2469 437.327 53.0643 437.112C53.8625 436.902 54.5545 437.286 54.7656 438.088L56.056 442.998L57.4889 442.621L56.2515 437.914C56.0177 437.024 56.3916 436.237 57.3292 435.991C58.0889 435.791 58.8252 436.05 59.0881 437.05L60.3546 441.868L61.7922 441.49L60.4904 436.537C60.0468 434.85 58.8832 434.256 57.5465 434.607C56.4839 434.887 55.8197 435.606 55.6711 436.488L55.5942 436.508C55.0597 435.785 54.2528 435.473 53.2671 435.732C52.2911 435.989 51.6927 436.665 51.5986 437.559L51.5072 437.583L51.1912 436.381L49.8113 436.743L51.7526 444.129Z" fill="#4CDA5B"/>
<circle opacity="0.5" cy="225" r="176" stroke="#B6EBBB" stroke-width="48" stroke-linecap="round"/>
<path d="M-176 225C-176 127.798 -97.2021 49 0 49C97.2021 49 176 127.798 176 225C176 242.552 173.431 259.504 168.648 275.5" stroke="url(#paint0_angular_3101_2264)" stroke-width="32" stroke-linecap="round"/>
<circle opacity="0.5" cx="-1.52588e-05" cy="225" r="120" stroke="#ACDDF7" stroke-width="48" stroke-linecap="round"/>
<path d="M120 225C120 158.726 66.2742 105 -1.52588e-05 105C-66.2742 105 -120 158.726 -120 225" stroke="url(#paint1_angular_3101_2264)" stroke-width="32" stroke-linecap="round"/>
<circle opacity="0.5" cx="-1.52588e-05" cy="225" r="64" stroke="#F4EBAC" stroke-width="48" stroke-linecap="round"/>
<path d="M-64 225C-64 189.654 -35.3462 161 -1.52588e-05 161C35.3462 161 64 189.654 64 225C64 244.035 55.69 261.129 42.5 272.852" stroke="url(#paint2_angular_3101_2264)" stroke-width="32" stroke-linecap="round"/>
<rect x="23.5068" y="67.7249" width="36" height="36" rx="18" transform="rotate(-75 23.5068 67.7249)" fill="#F5F5F5"/>
<rect x="23.5068" y="67.7249" width="36" height="36" rx="18" transform="rotate(-75 23.5068 67.7249)" stroke="#B6EBBB" stroke-width="4"/>
<rect x="127.832" y="130.412" width="36" height="36" rx="18" transform="rotate(-30 127.832 130.412)" fill="#F5F5F5"/>
<rect x="127.832" y="130.412" width="36" height="36" rx="18" transform="rotate(-30 127.832 130.412)" stroke="#B6EBBB" stroke-width="4"/>
<circle cx="206" cy="300" r="6" fill="#22D334" stroke="#F5F5F5" stroke-width="4"/>
<defs>
<radialGradient id="paint0_angular_3101_2264" cx="0" cy="0" r="1" gradientUnits="userSpaceOnUse" gradientTransform="translate(0 225) rotate(-90) scale(176)">
<stop stop-color="#8BE494"/>
<stop offset="0.299699" stop-color="#22D334"/>
</radialGradient>
<radialGradient id="paint1_angular_3101_2264" cx="0" cy="0" r="1" gradientUnits="userSpaceOnUse" gradientTransform="translate(-1.52588e-05 225) rotate(-90) scale(120)">
<stop stop-color="#7ACDF8"/>
<stop offset="0.246072" stop-color="#00A6FB"/>
</radialGradient>
<radialGradient id="paint2_angular_3101_2264" cx="0" cy="0" r="1" gradientUnits="userSpaceOnUse" gradientTransform="translate(-1.52588e-05 225) rotate(-90) scale(64)">
<stop stop-color="#F3E47B"/>
<stop offset="0.354068" stop-color="#F1D302"/>
</radialGradient>
</defs>
</svg>
