<svg width="170" height="57" viewBox="0 0 170 57" fill="none" xmlns="http://www.w3.org/2000/svg">
<path d="M10.3899 11.6668C10.2059 11.146 9.63457 10.8731 9.11386 11.0572C8.59314 11.2412 8.32022 11.8125 8.50426 12.3332L10.3899 11.6668ZM14.1623 12.3332C14.3464 11.8125 14.0735 11.2412 13.5527 11.0572C13.032 10.8731 12.4607 11.146 12.2767 11.6668L14.1623 12.3332ZM20.7152 20.3332C20.8993 19.8125 20.6264 19.2412 20.1056 19.0572C19.5849 18.8731 19.0136 19.146 18.8296 19.6668L20.7152 20.3332ZM13.1704 19.6668C12.9864 19.146 12.4151 18.8731 11.8944 19.0572C11.3736 19.2412 11.1007 19.8125 11.2848 20.3332L13.1704 19.6668ZM19.7233 11.6668C19.5392 11.146 18.9679 10.8731 18.4472 11.0572C17.9265 11.2412 17.6536 11.8125 17.8376 12.3332L19.7233 11.6668ZM23.4957 12.3332C23.6797 11.8125 23.4068 11.2412 22.8861 11.0572C22.3654 10.8731 21.794 11.146 21.61 11.6668L23.4957 12.3332ZM16 29C23.1797 29 29 23.1797 29 16H27C27 22.0751 22.0751 27 16 27V29ZM29 16C29 8.8203 23.1797 3 16 3V5C22.0751 5 27 9.92487 27 16H29ZM16 3C8.8203 3 3 8.8203 3 16H5C5 9.92487 9.92487 5 16 5V3ZM3 16C3 23.1797 8.8203 29 16 29V27C9.92487 27 5 22.0751 5 16H3ZM11.3333 12.3333C10.8995 12.3333 10.5277 12.0565 10.3899 11.6668L8.50426 12.3332C8.91562 13.4971 10.0255 14.3333 11.3333 14.3333V12.3333ZM12.2767 11.6668C12.1389 12.0565 11.7671 12.3333 11.3333 12.3333V14.3333C12.6411 14.3333 13.751 13.4971 14.1623 12.3332L12.2767 11.6668ZM18.8296 19.6668C18.4172 20.8333 17.3047 21.6667 16 21.6667V23.6667C18.1786 23.6667 20.0293 22.2739 20.7152 20.3332L18.8296 19.6668ZM16 21.6667C14.6953 21.6667 13.5828 20.8333 13.1704 19.6668L11.2848 20.3332C11.9707 22.2739 13.8214 23.6667 16 23.6667V21.6667ZM20.6666 12.3333C20.2328 12.3333 19.861 12.0565 19.7233 11.6668L17.8376 12.3332C18.249 13.4971 19.3589 14.3333 20.6666 14.3333V12.3333ZM21.61 11.6668C21.4722 12.0565 21.1005 12.3333 20.6666 12.3333V14.3333C21.9744 14.3333 23.0843 13.4971 23.4957 12.3332L21.61 11.6668Z" fill="#F5F5F5"/>
<path d="M3.12216 56.1541C4.32031 56.1541 5.03622 55.5923 5.36435 54.951H5.42401V56H7.15412V50.8892C7.15412 48.8707 5.50852 48.2642 4.05185 48.2642C2.44602 48.2642 1.21307 48.9801 0.815341 50.3722L2.49574 50.6108C2.67472 50.0888 3.18182 49.6413 4.06179 49.6413C4.89702 49.6413 5.3544 50.0689 5.3544 50.8196V50.8494C5.3544 51.3665 4.8125 51.3913 3.4652 51.5355C1.98366 51.6946 0.566761 52.1371 0.566761 53.8572C0.566761 55.3587 1.66548 56.1541 3.12216 56.1541ZM3.58949 54.8317C2.83878 54.8317 2.30185 54.4886 2.30185 53.8274C2.30185 53.1364 2.90341 52.848 3.70881 52.7337C4.18111 52.669 5.12571 52.5497 5.35938 52.3608V53.2607C5.35938 54.1108 4.6733 54.8317 3.58949 54.8317ZM11.2376 56.1342C12.5501 56.1342 13.1417 55.3537 13.4251 54.7969H13.5345V56H15.3043V45.8182H13.4997V49.6264H13.4251C13.1516 49.0746 12.5899 48.2642 11.2426 48.2642C9.47764 48.2642 8.09057 49.6463 8.09057 52.1918C8.09057 54.7074 9.43787 56.1342 11.2376 56.1342ZM11.7397 54.6577C10.5515 54.6577 9.92509 53.6136 9.92509 52.1818C9.92509 50.7599 10.5416 49.7408 11.7397 49.7408C12.8981 49.7408 13.5345 50.7003 13.5345 52.1818C13.5345 53.6634 12.8882 54.6577 11.7397 54.6577ZM19.4959 56.1342C20.8084 56.1342 21.4001 55.3537 21.6834 54.7969H21.7928V56H23.5627V45.8182H21.758V49.6264H21.6834C21.41 49.0746 20.8482 48.2642 19.5009 48.2642C17.736 48.2642 16.3489 49.6463 16.3489 52.1918C16.3489 54.7074 17.6962 56.1342 19.4959 56.1342ZM19.9981 54.6577C18.8099 54.6577 18.1834 53.6136 18.1834 52.1818C18.1834 50.7599 18.7999 49.7408 19.9981 49.7408C21.1565 49.7408 21.7928 50.7003 21.7928 52.1818C21.7928 53.6634 21.1465 54.6577 19.9981 54.6577ZM27.8332 56H29.6329V51.3565C29.6329 50.4169 30.2593 49.7805 31.0349 49.7805C31.7955 49.7805 32.3175 50.2926 32.3175 51.0781V56H34.0824V51.2372C34.0824 50.3771 34.5945 49.7805 35.4645 49.7805C36.1904 49.7805 36.7671 50.2081 36.7671 51.1527V56H38.5718V50.8743C38.5718 49.169 37.5874 48.2642 36.1854 48.2642C35.0768 48.2642 34.2316 48.8111 33.8935 49.6612H33.814C33.5207 48.7962 32.7799 48.2642 31.7508 48.2642C30.7266 48.2642 29.961 48.7912 29.6428 49.6612H29.5533V48.3636H27.8332V56ZM43.1686 56.1491C45.4058 56.1491 46.8277 54.5732 46.8277 52.2116C46.8277 49.8452 45.4058 48.2642 43.1686 48.2642C40.9314 48.2642 39.5095 49.8452 39.5095 52.2116C39.5095 54.5732 40.9314 56.1491 43.1686 56.1491ZM43.1785 54.7074C41.9406 54.7074 41.3341 53.6037 41.3341 52.2067C41.3341 50.8097 41.9406 49.6911 43.1785 49.6911C44.3966 49.6911 45.0031 50.8097 45.0031 52.2067C45.0031 53.6037 44.3966 54.7074 43.1785 54.7074ZM51.1262 56.1491C53.3634 56.1491 54.7852 54.5732 54.7852 52.2116C54.7852 49.8452 53.3634 48.2642 51.1262 48.2642C48.8889 48.2642 47.4671 49.8452 47.4671 52.2116C47.4671 54.5732 48.8889 56.1491 51.1262 56.1491ZM51.1361 54.7074C49.8982 54.7074 49.2916 53.6037 49.2916 52.2067C49.2916 50.8097 49.8982 49.6911 51.1361 49.6911C52.3541 49.6911 52.9607 50.8097 52.9607 52.2067C52.9607 53.6037 52.3541 54.7074 51.1361 54.7074ZM58.5866 56.1342C59.8991 56.1342 60.4907 55.3537 60.7741 54.7969H60.8834V56H62.6533V45.8182H60.8486V49.6264H60.7741C60.5006 49.0746 59.9388 48.2642 58.5915 48.2642C56.8266 48.2642 55.4396 49.6463 55.4396 52.1918C55.4396 54.7074 56.7869 56.1342 58.5866 56.1342ZM59.0887 54.6577C57.9005 54.6577 57.2741 53.6136 57.2741 52.1818C57.2741 50.7599 57.8905 49.7408 59.0887 49.7408C60.2471 49.7408 60.8834 50.7003 60.8834 52.1818C60.8834 53.6634 60.2371 54.6577 59.0887 54.6577Z" fill="#F5F5F5"/>
</svg>
