<svg width="60" height="20" viewBox="0 0 60 20" fill="none" xmlns="http://www.w3.org/2000/svg">
<path d="M0 19.7018H3.5395V11.3324H11.6584V8.34055H3.5395V2.99182H12.5171V0H0V19.7018Z" fill="#FF541E"/>
<path d="M17.7942 20C20.0934 20 21.4672 18.9129 22.0969 17.672H22.2114V19.7018H25.5315V9.81241C25.5315 5.90669 22.3736 4.73305 19.5782 4.73305C16.4967 4.73305 14.1306 6.11833 13.3674 8.81193L16.5921 9.27369C16.9355 8.26359 17.9086 7.39779 19.5973 7.39779C21.2001 7.39779 22.0778 8.22511 22.0778 9.67773V9.73545C22.0778 10.7359 21.0379 10.784 18.4524 11.063C15.6094 11.3709 12.8904 12.227 12.8904 15.5556C12.8904 18.4608 14.9988 20 17.7942 20ZM18.691 17.4411C17.2504 17.4411 16.22 16.7773 16.22 15.4978C16.22 14.1607 17.3744 13.6027 18.9199 13.3814C19.8263 13.2564 21.639 13.0255 22.0874 12.6599V14.4012C22.0874 16.0462 20.7708 17.4411 18.691 17.4411Z" fill="#FF541E"/>
<path d="M38.7057 8.83117C38.2286 6.32997 36.2442 4.73305 32.8097 4.73305C29.2797 4.73305 26.8755 6.48389 26.885 9.21597C26.8755 11.3709 28.1921 12.7946 31.0065 13.3814L33.5061 13.9105C34.8513 14.2088 35.481 14.7571 35.481 15.594C35.481 16.6041 34.3934 17.3641 32.7524 17.3641C31.1687 17.3641 30.1383 16.6715 29.8426 15.3439L26.4748 15.671C26.9041 18.3838 29.1652 19.9904 32.762 19.9904C36.4255 19.9904 39.0109 18.076 39.0205 15.2766C39.0109 13.1698 37.6657 11.8807 34.899 11.2747L32.3994 10.7359C30.9111 10.3992 30.3196 9.87975 30.3291 9.02357C30.3196 8.02309 31.4168 7.33045 32.8574 7.33045C34.4506 7.33045 35.2902 8.20587 35.5573 9.17749L38.7057 8.83117Z" fill="#FF541E"/>
<path d="M47.3052 4.92545H44.4145V1.38528H40.9608V4.92545H38.881V7.61905H40.9608V15.8345C40.9417 18.6147 42.9452 19.9808 45.5402 19.9038C46.5229 19.8749 47.2003 19.6825 47.5723 19.5575L46.9904 16.835C46.7996 16.8831 46.4084 16.9697 45.9791 16.9697C45.1109 16.9697 44.4145 16.6619 44.4145 15.2573V7.61905H47.3052V4.92545Z" fill="#FF541E"/>
<path d="M59.6852 8.83117C59.2081 6.32997 57.2237 4.73305 53.7892 4.73305C50.2592 4.73305 47.855 6.48389 47.8646 9.21597C47.855 11.3709 49.1716 12.7946 51.986 13.3814L54.4856 13.9105C55.8308 14.2088 56.4605 14.7571 56.4605 15.594C56.4605 16.6041 55.3729 17.3641 53.7319 17.3641C52.1482 17.3641 51.1179 16.6715 50.8221 15.3439L47.4543 15.671C47.8836 18.3838 50.1447 19.9904 53.7415 19.9904C57.405 19.9904 59.9905 18.076 60 15.2766C59.9905 13.1698 58.6453 11.8807 55.8785 11.2747L53.3789 10.7359C51.8906 10.3992 51.2991 9.87975 51.3087 9.02357C51.2991 8.02309 52.3963 7.33045 53.8369 7.33045C55.4301 7.33045 56.2697 8.20587 56.5368 9.17749L59.6852 8.83117Z" fill="#FF541E"/>
</svg>
